<svg width="174" height="68" viewBox="0 0 174 68" fill="none" xmlns="http://www.w3.org/2000/svg">
<circle cx="3.58108" cy="3.58108" r="3.58108" fill="#C94C16" fill-opacity="0.4"/>
<circle cx="3.58108" cy="18.7432" r="3.58108" fill="#C94C16" fill-opacity="0.4"/>
<circle cx="3.58108" cy="33.9053" r="3.58108" fill="#C94C16" fill-opacity="0.4"/>
<circle cx="3.58108" cy="49.0674" r="3.58108" fill="#C94C16" fill-opacity="0.4"/>
<circle cx="3.58108" cy="64.2295" r="3.58108" fill="#C94C16" fill-opacity="0.4"/>
<circle cx="64.2295" cy="3.58108" r="3.58108" fill="#C94C16" fill-opacity="0.4"/>
<circle cx="64.2295" cy="18.7432" r="3.58108" fill="#C94C16" fill-opacity="0.4"/>
<circle cx="64.2295" cy="33.9053" r="3.58108" fill="#C94C16" fill-opacity="0.4"/>
<circle cx="64.2295" cy="49.0674" r="3.58108" fill="#C94C16" fill-opacity="0.4"/>
<circle cx="64.2295" cy="64.2295" r="3.58108" fill="#C94C16" fill-opacity="0.4"/>
<circle cx="124.878" cy="3.58108" r="3.58108" fill="#C94C16" fill-opacity="0.4"/>
<circle cx="124.878" cy="18.7432" r="3.58108" fill="#C94C16" fill-opacity="0.4"/>
<circle cx="124.878" cy="33.9053" r="3.58108" fill="#C94C16" fill-opacity="0.4"/>
<circle cx="124.878" cy="49.0674" r="3.58108" fill="#C94C16" fill-opacity="0.4"/>
<circle cx="124.878" cy="64.2295" r="3.58108" fill="#C94C16" fill-opacity="0.4"/>
<circle cx="18.7432" cy="3.58108" r="3.58108" fill="#C94C16" fill-opacity="0.4"/>
<circle cx="18.7432" cy="18.7432" r="3.58108" fill="#C94C16" fill-opacity="0.4"/>
<circle cx="18.7432" cy="33.9053" r="3.58108" fill="#C94C16" fill-opacity="0.4"/>
<circle cx="18.7432" cy="49.0674" r="3.58108" fill="#C94C16" fill-opacity="0.4"/>
<circle cx="18.7432" cy="64.2295" r="3.58108" fill="#C94C16" fill-opacity="0.4"/>
<circle cx="79.3916" cy="3.58108" r="3.58108" fill="#C94C16" fill-opacity="0.4"/>
<circle cx="79.3916" cy="18.7432" r="3.58108" fill="#C94C16" fill-opacity="0.4"/>
<circle cx="79.3916" cy="33.9053" r="3.58108" fill="#C94C16" fill-opacity="0.4"/>
<circle cx="79.3916" cy="49.0674" r="3.58108" fill="#C94C16" fill-opacity="0.4"/>
<circle cx="79.3916" cy="64.2295" r="3.58108" fill="#C94C16" fill-opacity="0.4"/>
<circle cx="140.04" cy="3.58108" r="3.58108" fill="#C94C16" fill-opacity="0.4"/>
<circle cx="140.04" cy="18.7432" r="3.58108" fill="#C94C16" fill-opacity="0.4"/>
<circle cx="140.04" cy="33.9053" r="3.58108" fill="#C94C16" fill-opacity="0.4"/>
<circle cx="140.04" cy="49.0674" r="3.58108" fill="#C94C16" fill-opacity="0.4"/>
<circle cx="140.04" cy="64.2295" r="3.58108" fill="#C94C16" fill-opacity="0.4"/>
<circle cx="33.9053" cy="3.58108" r="3.58108" fill="#C94C16" fill-opacity="0.4"/>
<circle cx="33.9053" cy="18.7432" r="3.58108" fill="#C94C16" fill-opacity="0.4"/>
<circle cx="33.9053" cy="33.9053" r="3.58108" fill="#C94C16" fill-opacity="0.4"/>
<circle cx="33.9053" cy="49.0674" r="3.58108" fill="#C94C16" fill-opacity="0.4"/>
<circle cx="33.9053" cy="64.2295" r="3.58108" fill="#C94C16" fill-opacity="0.4"/>
<circle cx="94.5537" cy="3.58108" r="3.58108" fill="#C94C16" fill-opacity="0.4"/>
<circle cx="94.5537" cy="18.7432" r="3.58108" fill="#C94C16" fill-opacity="0.4"/>
<circle cx="94.5537" cy="33.9053" r="3.58108" fill="#C94C16" fill-opacity="0.4"/>
<circle cx="94.5537" cy="49.0674" r="3.58108" fill="#C94C16" fill-opacity="0.4"/>
<circle cx="94.5537" cy="64.2295" r="3.58108" fill="#C94C16" fill-opacity="0.4"/>
<circle cx="155.202" cy="3.58108" r="3.58108" fill="#C94C16" fill-opacity="0.4"/>
<circle cx="155.202" cy="18.7432" r="3.58108" fill="#C94C16" fill-opacity="0.4"/>
<circle cx="155.202" cy="33.9053" r="3.58108" fill="#C94C16" fill-opacity="0.4"/>
<circle cx="155.202" cy="49.0674" r="3.58108" fill="#C94C16" fill-opacity="0.4"/>
<circle cx="155.202" cy="64.2295" r="3.58108" fill="#C94C16" fill-opacity="0.4"/>
<circle cx="49.0674" cy="3.58108" r="3.58108" fill="#C94C16" fill-opacity="0.4"/>
<circle cx="49.0674" cy="18.7432" r="3.58108" fill="#C94C16" fill-opacity="0.4"/>
<circle cx="49.0674" cy="33.9053" r="3.58108" fill="#C94C16" fill-opacity="0.4"/>
<circle cx="49.0674" cy="49.0674" r="3.58108" fill="#C94C16" fill-opacity="0.4"/>
<circle cx="49.0674" cy="64.2295" r="3.58108" fill="#C94C16" fill-opacity="0.4"/>
<circle cx="109.716" cy="3.58108" r="3.58108" fill="#C94C16" fill-opacity="0.4"/>
<circle cx="109.716" cy="18.7432" r="3.58108" fill="#C94C16" fill-opacity="0.4"/>
<circle cx="109.716" cy="33.9053" r="3.58108" fill="#C94C16" fill-opacity="0.4"/>
<circle cx="109.716" cy="49.0674" r="3.58108" fill="#C94C16" fill-opacity="0.4"/>
<circle cx="109.716" cy="64.2295" r="3.58108" fill="#C94C16" fill-opacity="0.4"/>
<circle cx="170.364" cy="3.58108" r="3.58108" fill="#C94C16" fill-opacity="0.4"/>
<circle cx="170.364" cy="18.7432" r="3.58108" fill="#C94C16" fill-opacity="0.4"/>
<circle cx="170.364" cy="33.9053" r="3.58108" fill="#C94C16" fill-opacity="0.4"/>
<circle cx="170.364" cy="49.0674" r="3.58108" fill="#C94C16" fill-opacity="0.4"/>
<circle cx="170.364" cy="64.2295" r="3.58108" fill="#C94C16" fill-opacity="0.4"/>
</svg>
