<svg width="30" height="24" viewBox="0 0 30 24" fill="none" xmlns="http://www.w3.org/2000/svg">
<path fill-rule="evenodd" clip-rule="evenodd" d="M6.23125 0C4.51875 0 3.2525 1.49875 3.31 3.1225C3.36375 4.685 3.29375 6.70625 2.785 8.355C2.2725 10.0075 1.41 11.055 0 11.19V12.7087C1.41 12.8425 2.27375 13.89 2.78375 15.5438C3.29375 17.1925 3.36375 19.2138 3.30875 20.775C3.2525 22.4 4.51875 23.8987 6.23125 23.8987H23.7713C25.4838 23.8987 26.75 22.4 26.6925 20.775C26.6388 19.2138 26.7088 17.1925 27.2175 15.5438C27.7288 13.89 28.59 12.8437 30 12.7087V11.19C28.59 11.055 27.7288 10.0075 27.2175 8.355C26.7088 6.705 26.6388 4.68375 26.6925 3.1225C26.75 1.4975 25.4825 0 23.7713 0H6.23125ZM20.3375 14.7113C20.3375 16.9488 18.6688 18.305 15.9 18.305H11.1863C11.0513 18.305 10.9219 18.2514 10.8265 18.156C10.7311 18.0606 10.6775 17.9312 10.6775 17.7962V6.10125C10.6778 5.96654 10.7316 5.83746 10.827 5.74232C10.9223 5.64718 11.0515 5.59375 11.1863 5.59375H15.8738C18.1825 5.59375 19.6987 6.84375 19.6987 8.765C19.6987 10.1125 18.6788 11.3188 17.38 11.5313V11.6013C19.1488 11.795 20.3387 13.02 20.3387 14.7113H20.3375ZM15.3875 7.205H12.7V11.0025H14.9637C16.7137 11.0025 17.6787 10.2975 17.6787 9.0375C17.6787 7.8575 16.8488 7.205 15.3875 7.205ZM12.7 12.5087V16.6925H15.4875C17.3088 16.6925 18.275 15.9613 18.275 14.5875C18.275 13.2125 17.2825 12.5087 15.37 12.5087H12.7V12.5087Z" fill="white"/>
</svg>
