<svg width="36" height="36" viewBox="0 0 36 36" fill="none" xmlns="http://www.w3.org/2000/svg">
<path d="M18.2953 6.26326C18.6375 6.12349 18.9561 5.91112 19.2253 5.62625C20.2372 4.55554 20.1891 2.85159 19.1184 1.83969C18.0477 0.827784 16.3438 0.875896 15.3319 1.9466C14.32 3.01731 14.3681 4.72126 15.4388 5.73317C15.7243 6.00301 16.0538 6.19645 16.4033 6.31669C13.5487 6.6186 10.8967 7.93327 8.92812 10.0224C4.35554 14.8607 4.57094 22.4893 9.40924 27.0619C14.2475 31.6345 21.8762 31.4191 26.4488 26.5808C31.0213 21.7425 30.8059 14.1138 25.9677 9.54126C23.8842 7.56675 21.1623 6.40386 18.2953 6.26326ZM17.2824 4.14633C17.0676 4.15482 16.8635 4.24262 16.7096 4.39277C16.5556 4.54292 16.4628 4.74477 16.449 4.95936C16.2894 4.8452 16.1549 4.69958 16.0538 4.53145C15.9527 4.36333 15.887 4.17628 15.861 3.98182C15.8349 3.78737 15.849 3.58964 15.9022 3.40082C15.9555 3.212 16.0469 3.0361 16.1708 2.88395C16.2947 2.73181 16.4484 2.60665 16.6225 2.51619C16.7966 2.42573 16.9873 2.37189 17.183 2.35798C17.3787 2.34408 17.5752 2.3704 17.7603 2.43534C17.9455 2.50027 18.1153 2.60244 18.2595 2.73554C18.41 2.87744 18.528 3.05016 18.6056 3.24189C18.6832 3.43363 18.7185 3.63985 18.709 3.84647C18.6996 4.05309 18.6456 4.25523 18.5508 4.43908C18.4561 4.62292 18.3227 4.78413 18.1599 4.91168C18.1347 4.69797 18.0309 4.50125 17.8688 4.3598C17.7066 4.21834 17.4976 4.14225 17.2824 4.14633ZM24.1278 11.488C27.8909 15.0444 28.0584 20.9779 24.502 24.741C20.9457 28.504 15.0121 28.6716 11.2491 25.1152C7.48602 21.5588 7.31848 15.6253 10.8749 11.8622C14.4312 8.09916 20.3648 7.93162 24.1278 11.488Z" fill="#C94C16"/>
<path d="M17.1707 6.17236C10.5437 6.17236 5.17065 11.5454 5.17065 18.1724C5.17065 24.7994 10.5437 30.1724 17.1707 30.1724C23.7977 30.1724 29.1707 24.7994 29.1707 18.1724C29.1617 11.5484 23.7947 6.18136 17.1717 6.17236H17.1707ZM27.2297 19.2784C26.6957 23.9714 23.0247 27.6644 18.3877 28.2264L18.3387 28.2314L17.1697 26.2064L16.0007 28.2304C11.3307 27.6604 7.66965 23.9924 7.11465 19.3684L7.10965 19.3204L9.07165 18.1724L7.10965 17.0454C7.66865 12.3734 11.3307 8.70436 15.9507 8.13936L15.9997 8.13436L17.1687 10.1594L18.3377 8.13536C23.0227 8.70236 26.6937 12.3944 27.2237 17.0404L27.2277 17.0874L25.3287 18.1934L27.2297 19.2784Z" fill="#C94C16"/>
<path d="M15.5976 16.5945L22.792 12.2126C23.1115 12.032 23.5628 12.4695 23.3892 12.7959L19.1184 20.1293L11.7851 24.4001C11.7023 24.4301 11.6126 24.4357 11.5267 24.416C11.4409 24.3964 11.3625 24.3525 11.3009 24.2895C11.2394 24.2265 11.1973 24.1471 11.1797 24.0608C11.1621 23.9745 11.1698 23.8849 11.2017 23.8029L15.5976 16.5945ZM18.3753 19.3723L16.292 17.289L13.1323 22.4557L18.3753 19.3723Z" fill="#C94C16"/>
</svg>
