<svg width="76" height="76" viewBox="0 0 76 76" fill="none" xmlns="http://www.w3.org/2000/svg">
<g clip-path="url(#clip0_309_373)">
<path d="M23.7188 0.603638H31.7769V3.97319H27.0883V7.34275H31.7769V10.7123H23.7188V0.603638ZM33.3867 0.603638H41.448V3.53559H36.7594V4.1201H41.448V10.8592H33.3867V7.78348H38.0753V7.19584H33.3867V0.603638ZM43.0609 0.603638H51.1159V3.53559H46.4273V4.1201H51.1159V10.8592H43.0609V7.78348H47.7495V7.19584H43.0609V0.603638Z" fill="white"/>
<path fill-rule="evenodd" clip-rule="evenodd" d="M37.7501 75.6215L16.0449 69.595L9.64648 15.3477H65.91L59.5147 69.5888L37.7501 75.6215ZM22.2964 39.9035L22.8934 46.5551H45.952L45.18 55.1822L37.7595 57.1889H37.7532L30.3452 55.1884L29.8701 49.884H23.1904L24.1218 60.3303L37.7501 64.1125L51.4002 60.3303L53.0631 41.6883L53.2257 39.9035L54.426 26.4347H21.0992L21.7056 33.0894H47.1367L46.5303 39.9035H22.2964Z" fill="white"/>
</g>
<defs>
<clipPath id="clip0_309_373">
<rect width="75.018" height="75.018" fill="white" transform="translate(0.269531 0.603638)"/>
</clipPath>
</defs>
</svg>
