<svg width="30" height="30" viewBox="0 0 30 30" fill="none" xmlns="http://www.w3.org/2000/svg">
<path fill-rule="evenodd" clip-rule="evenodd" d="M18.965 0H13.745V7.415C13.002 7.23575 12.2392 7.15174 11.475 7.165C6.02 7.16375 2.5 10.3812 2.5 15.3412C2.5 20.4888 5.81875 23.17 12.1938 23.1763C14.3225 23.1763 16.2913 22.9888 18.965 22.5138V0ZM12.1675 11.2213C12.8125 11.2213 13.3175 11.2837 13.9275 11.4713V19.2812C13.1825 19.375 12.7125 19.4062 12.135 19.4062C9.46 19.4062 8.00375 17.9788 8.00375 15.3937C8.00375 12.7375 9.52875 11.2213 12.1675 11.2213Z" fill="white"/>
<path d="M27.5 19.0413V7.76875H22.2875V17.3625C22.2875 21.5963 22.0525 23.205 21.3063 24.595C20.5938 25.9538 19.4788 26.845 17.175 27.8525L22.0188 30C24.3225 28.9225 25.4375 27.9463 26.2838 26.4C27.1913 24.79 27.5 22.9225 27.5 19.0413ZM26.98 0H21.7625V4.99125H26.9813V0H26.98Z" fill="white"/>
</svg>
