<svg width="22" height="16" viewBox="0 0 22 16" fill="none" xmlns="http://www.w3.org/2000/svg">
<path d="M5.5 16.0001C3.98333 16.0001 2.68767 15.4751 1.613 14.4251C0.537667 13.3751 0 12.0918 0 10.5751C0 9.2751 0.391667 8.11676 1.175 7.1001C1.95833 6.08343 2.98333 5.43343 4.25 5.1501C4.53333 3.9501 5.24167 2.80843 6.375 1.7251C7.50833 0.641764 8.71667 0.100098 10 0.100098C10.55 0.100098 11.021 0.295764 11.413 0.687098C11.8043 1.0791 12 1.5501 12 2.1001V8.1501L13.6 6.6001L15 8.0001L11 12.0001L7 8.0001L8.4 6.6001L10 8.1501V2.1001C8.73333 2.33343 7.75 2.94576 7.05 3.9371C6.35 4.9291 6 5.9501 6 7.0001H5.5C4.53333 7.0001 3.70833 7.34176 3.025 8.0251C2.34167 8.70843 2 9.53343 2 10.5001C2 11.4668 2.34167 12.2918 3.025 12.9751C3.70833 13.6584 4.53333 14.0001 5.5 14.0001H17.5C18.2 14.0001 18.7917 13.7584 19.275 13.2751C19.7583 12.7918 20 12.2001 20 11.5001C20 10.8001 19.7583 10.2084 19.275 9.7251C18.7917 9.24176 18.2 9.0001 17.5 9.0001H16V7.0001C16 6.2001 15.8167 5.4541 15.45 4.7621C15.0833 4.07076 14.6 3.48343 14 3.0001V0.675098C15.2333 1.25843 16.2083 2.1211 16.925 3.2631C17.6417 4.40443 18 5.6501 18 7.0001C19.15 7.13343 20.1043 7.6291 20.863 8.4871C21.621 9.34577 22 10.3501 22 11.5001C22 12.7501 21.5627 13.8128 20.688 14.6881C19.8127 15.5628 18.75 16.0001 17.5 16.0001H5.5Z" fill="#FF4D00"/>
</svg>
