<svg width="36" height="51" viewBox="0 0 36 51" fill="none" xmlns="http://www.w3.org/2000/svg">
<path d="M31.457 17.8593C33.0897 16.6752 34.3058 15.0047 34.931 13.0871C35.5561 11.1696 35.5583 9.1033 34.9372 7.1844C34.3161 5.2655 33.1035 3.59242 31.4733 2.40488C29.843 1.21733 27.8787 0.576252 25.8618 0.573486H10.3955C8.37861 0.576252 6.41432 1.21733 4.78407 2.40488C3.15382 3.59242 1.94128 5.2655 1.32017 7.1844C0.699047 9.1033 0.701226 11.1696 1.32639 13.0871C1.95155 15.0047 3.16762 16.6752 4.80037 17.8593C3.57456 18.7422 2.57618 19.9038 1.88757 21.2483C1.19896 22.5929 0.839844 24.0819 0.839844 25.5925C0.839844 27.1031 1.19896 28.5921 1.88757 29.9367C2.57618 31.2812 3.57456 32.4428 4.80037 33.3256C3.47444 34.2838 2.4168 35.5664 1.72877 37.0506C1.04075 38.5348 0.745401 40.1708 0.87103 41.8019C0.996659 43.4329 1.53905 45.0044 2.44624 46.3657C3.35344 47.7271 4.59502 48.8326 6.05204 49.5764C7.50906 50.3202 9.13268 50.6774 10.7673 50.6138C12.402 50.5501 13.9929 50.0677 15.3877 49.2128C16.7824 48.3579 17.9342 47.1591 18.7328 45.7314C19.5313 44.3036 19.9499 42.6947 19.9482 41.0588V33.0754C20.9398 33.9121 22.0913 34.538 23.3327 34.9149C24.5741 35.2919 25.8792 35.4121 27.1685 35.2681C28.4579 35.1242 29.7044 34.7191 30.832 34.0776C31.9596 33.4361 32.9448 32.5717 33.7274 31.537C34.51 30.5023 35.0737 29.319 35.384 28.0593C35.6943 26.7996 35.7447 25.4899 35.5323 24.2101C35.3199 22.9303 34.8489 21.7071 34.1483 20.6153C33.4476 19.5234 32.5319 18.5857 31.457 17.8593ZM31.7754 10.1262C31.7694 11.6927 31.1445 13.1934 30.0367 14.3011C28.929 15.4088 27.4284 16.0338 25.8618 16.0398H19.9482V4.21261H25.8618C27.4284 4.21861 28.929 4.84356 30.0367 5.95128C31.1445 7.059 31.7694 8.55966 31.7754 10.1262ZM4.48194 10.1262C4.48793 8.55966 5.1129 7.059 6.22061 5.95128C7.32833 4.84356 8.82899 4.21861 10.3955 4.21261H16.3091V16.0398H10.3955C8.82899 16.0338 7.32833 15.4088 6.22061 14.3011C5.1129 13.1934 4.48793 11.6927 4.48194 10.1262ZM4.48194 25.5925C4.48793 24.026 5.1129 22.5253 6.22061 21.4176C7.32833 20.3099 8.82899 19.6849 10.3955 19.6789H16.3091V31.5061H10.3955C8.82899 31.5001 7.32833 30.8751 6.22061 29.7674C5.1129 28.6597 4.48793 27.159 4.48194 25.5925ZM10.3955 46.9724C8.82715 46.9724 7.323 46.3493 6.21399 45.2403C5.10498 44.1313 4.48194 42.6272 4.48194 41.0588C4.48194 39.4904 5.10498 37.9863 6.21399 36.8773C7.323 35.7682 8.82715 35.1452 10.3955 35.1452H16.3091V41.0588C16.3031 42.6253 15.6782 44.126 14.5704 45.2337C13.4627 46.3414 11.9621 46.9664 10.3955 46.9724ZM25.8618 31.5061C24.2934 31.5061 22.7893 30.883 21.6803 29.774C20.5713 28.665 19.9482 27.1609 19.9482 25.5925C19.9482 24.0241 20.5713 22.52 21.6803 21.411C22.7893 20.3019 24.2934 19.6789 25.8618 19.6789C27.4302 19.6789 28.9343 20.3019 30.0434 21.411C31.1524 22.52 31.7754 24.0241 31.7754 25.5925C31.7754 27.1609 31.1524 28.665 30.0434 29.774C28.9343 30.883 27.4302 31.5061 25.8618 31.5061Z" fill="white"/>
</svg>
