<svg width="76" height="76" viewBox="0 0 76 76" fill="none" xmlns="http://www.w3.org/2000/svg">
<path d="M2.43322 32.5369L24.1122 10.8205L30.4508 17.1966C29.5507 20.3847 31.0134 23.8729 33.939 25.5607V46.3395C31.6886 47.6147 30.1883 50.0526 30.1883 52.8281C30.1883 54.8176 30.9786 56.7256 32.3854 58.1324C33.7922 59.5392 35.7002 60.3295 37.6897 60.3295C39.6791 60.3295 41.5872 59.5392 42.9939 58.1324C44.4007 56.7256 45.191 54.8176 45.191 52.8281C45.191 50.0526 43.6908 47.6147 41.4403 46.3395V28.1111L49.2043 35.9501C48.9417 36.5127 48.9417 37.1503 48.9417 37.8254C48.9417 39.8149 49.732 41.7229 51.1388 43.1297C52.5456 44.5365 54.4536 45.3268 56.4431 45.3268C58.4326 45.3268 60.3406 44.5365 61.7474 43.1297C63.1541 41.7229 63.9445 39.8149 63.9445 37.8254C63.9445 35.8359 63.1541 33.9279 61.7474 32.5211C60.3406 31.1144 58.4326 30.324 56.4431 30.324C55.768 30.324 55.1304 30.324 54.5677 30.5866L44.9285 20.9473C45.3942 19.2101 45.2136 17.363 44.4204 15.7488C43.6271 14.1347 42.275 12.8633 40.6152 12.1707C39.0024 11.5706 37.3146 11.4206 35.8143 11.8332L29.4382 5.4945L32.4012 2.56896C35.3267 -0.394081 40.0526 -0.394081 42.9781 2.56896L72.9461 32.5369C75.9091 35.4625 75.9091 40.1883 72.9461 43.1139L42.9781 73.0818C40.0526 76.0449 35.3267 76.0449 32.4012 73.0818L2.43322 43.1139C-0.529823 40.1883 -0.529823 35.4625 2.43322 32.5369Z" fill="white"/>
</svg>
