<svg width="53" height="51" viewBox="0 0 53 51" fill="none" xmlns="http://www.w3.org/2000/svg">
<path d="M26.5278 0.573486C23.1601 0.573486 19.8253 1.23681 16.7139 2.5256C13.6025 3.81438 10.7754 5.70338 8.39406 8.08474C3.58469 12.8941 0.882813 19.417 0.882812 26.2185C0.882813 37.5536 8.24293 47.1705 18.424 50.5813C19.7063 50.7864 20.1166 49.9914 20.1166 49.299V44.965C13.0129 46.5037 11.4998 41.5286 11.4998 41.5286C10.3202 38.5538 8.65325 37.7588 8.65325 37.7588C6.31956 36.1688 8.83277 36.2201 8.83277 36.2201C11.3973 36.3996 12.7565 38.8615 12.7565 38.8615C14.9876 42.7595 18.7574 41.6055 20.2192 40.99C20.45 39.3231 21.1167 38.1947 21.8348 37.5536C16.1416 36.9125 10.1663 34.707 10.1663 24.9363C10.1663 22.0897 11.1408 19.8072 12.8077 17.9865C12.5513 17.3453 11.6537 14.6782 13.0642 11.2162C13.0642 11.2162 15.2184 10.5238 20.1166 13.832C22.1425 13.2678 24.348 12.9857 26.5278 12.9857C28.7077 12.9857 30.9131 13.2678 32.9391 13.832C37.8373 10.5238 39.9915 11.2162 39.9915 11.2162C41.4019 14.6782 40.5044 17.3453 40.2479 17.9865C41.9148 19.8072 42.8893 22.0897 42.8893 24.9363C42.8893 34.7326 36.8884 36.8868 31.1696 37.528C32.0928 38.3229 32.9391 39.8873 32.9391 42.2723V49.299C32.9391 49.9914 33.3494 50.8121 34.6573 50.5813C44.8384 47.1448 52.1728 37.5536 52.1728 26.2185C52.1728 22.8507 51.5095 19.516 50.2207 16.4046C48.932 13.2932 47.043 10.4661 44.6616 8.08474C42.2802 5.70338 39.4531 3.81438 36.3418 2.5256C33.2304 1.23681 29.8956 0.573486 26.5278 0.573486Z" fill="white"/>
</svg>
