<svg width="76" height="76" viewBox="0 0 76 76" fill="none" xmlns="http://www.w3.org/2000/svg">
<g clip-path="url(#clip0_305_189)">
<mask id="mask0_305_189" style="mask-type:luminance" maskUnits="userSpaceOnUse" x="0" y="3" width="76" height="76">
<path d="M0.865234 3.81873H75.8832V78.8367H0.865234V3.81873Z" fill="white"/>
</mask>
<g mask="url(#mask0_305_189)">
<path d="M16.7441 3.81873H20.1262V7.16015H23.2207V3.81873H26.6028V13.9336H23.2207V10.5485H20.1262V13.9336H16.7473V3.81873H16.7441ZM31.0476 7.17265H28.0719V3.81873H37.4085V7.17265H34.4296V13.9336H31.0476V7.17265ZM38.8901 3.81873H42.4159L44.5852 7.3727L46.7513 3.81873H50.2772V13.9336H46.9107V8.91995L44.5852 12.5177H44.5258L42.1971 8.92307V13.9336H38.8901V3.81873ZM51.9588 3.81873H55.344V10.5922H60.0951V13.9368H51.9588V3.81873Z" fill="white"/>
<path fill-rule="evenodd" clip-rule="evenodd" d="M16.6375 72.8103L10.2422 18.563H66.5057L60.1072 72.8041L38.3427 78.8368L16.6375 72.8103ZM29.5687 43.1157L28.9623 36.3016H54.4215L55.0154 29.65H21.6949L23.4891 49.7705H46.5478L45.7757 58.3975L38.3552 60.4043H38.3489L30.9409 58.4038L30.4658 53.0994H23.7829L24.7144 63.5456L38.3427 67.3278L51.9928 63.5456L53.6557 44.9037L53.8182 43.1189H29.5687V43.1157Z" fill="white"/>
</g>
</g>
<defs>
<clipPath id="clip0_305_189">
<rect width="75.018" height="75.018" fill="white" transform="translate(0.867188 0.603638)"/>
</clipPath>
</defs>
</svg>
