<svg width="76" height="76" viewBox="0 0 76 76" fill="none" xmlns="http://www.w3.org/2000/svg">
<g clip-path="url(#clip0_309_388)">
<g clip-path="url(#clip1_309_388)">
<mask id="mask0_309_388" style="mask-type:luminance" maskUnits="userSpaceOnUse" x="0" y="0" width="76" height="76">
<path d="M0.667969 0.603638H75.6859V75.6216H0.667969V0.603638Z" fill="white"/>
</mask>
<g mask="url(#mask0_309_388)">
<path fill-rule="evenodd" clip-rule="evenodd" d="M0.667969 0.603638H75.6859V75.6216H0.667969V0.603638ZM58.0161 63.4937C54.5371 63.4937 52.571 61.6808 51.0613 59.2114L45.3318 62.5403C47.401 66.6288 51.6302 69.7483 58.1786 69.7483C64.874 69.7483 69.8595 66.2725 69.8595 59.9241C69.8595 54.0383 66.4775 51.4221 60.4885 48.8496L58.7256 48.0963C55.6999 46.7834 54.3902 45.9301 54.3902 43.814C54.3902 42.1042 55.703 40.7945 57.766 40.7945C59.7884 40.7945 61.0918 41.6478 62.3015 43.814L67.7903 40.2913C65.4679 36.2059 62.2483 34.6462 57.766 34.6462C51.4708 34.6462 47.4417 38.6721 47.4417 43.9609C47.4417 49.6966 50.8175 52.4129 55.9062 54.5791L57.6691 55.3355C60.8855 56.7421 62.8016 57.5985 62.8016 60.0147C62.8016 62.034 60.9355 63.4937 58.0161 63.4937ZM30.697 63.4468C28.2746 63.4468 27.265 61.7902 26.1584 59.8209L20.4196 63.2968C22.0825 66.8164 25.352 69.7358 30.994 69.7358C37.2423 69.7358 41.5215 66.4131 41.5215 59.1145V35.0463H34.4729V59.0207C34.4729 62.5435 33.0101 63.4468 30.6939 63.4468H30.697Z" fill="white"/>
</g>
</g>
</g>
<defs>
<clipPath id="clip0_309_388">
<rect width="75.018" height="75.018" fill="white" transform="translate(0.669922 0.603638)"/>
</clipPath>
<clipPath id="clip1_309_388">
<rect width="75.018" height="75.018" fill="white" transform="translate(0.669922 0.603638)"/>
</clipPath>
</defs>
</svg>
