<svg width="42" height="42" viewBox="0 0 42 42" fill="none" xmlns="http://www.w3.org/2000/svg">
<path d="M20.75 0C15.2468 0 9.96891 2.18615 6.07753 6.07753C2.18615 9.96891 0 15.2468 0 20.75C0 26.2532 2.18615 31.5311 6.07753 35.4225C9.96891 39.3138 15.2468 41.5 20.75 41.5C26.2532 41.5 31.5311 39.3138 35.4225 35.4225C39.3138 31.5311 41.5 26.2532 41.5 20.75C41.5 15.2468 39.3138 9.96891 35.4225 6.07753C31.5311 2.18615 26.2532 0 20.75 0V0ZM26.2194 37.6664H26.0585C25.9378 37.6733 25.8168 37.6553 25.7032 37.6137C25.5897 37.572 25.4858 37.5076 25.398 37.4244C25.3169 37.3386 25.2537 37.2376 25.2121 37.1271C25.1706 37.0167 25.1514 36.899 25.1559 36.7811V34.3499C25.1663 33.5424 25.1732 32.7245 25.1732 31.9014C25.1704 31.2995 25.0825 30.7011 24.9121 30.1238C24.7507 29.5403 24.4255 29.0152 23.9749 28.6108C25.1801 28.4944 26.3649 28.2206 27.4989 27.7964C28.4555 27.4326 29.3208 26.8636 30.0339 26.1294C30.7377 25.3911 31.2616 24.4988 31.5642 23.5253C31.9323 22.3331 32.1074 21.0897 32.083 19.8422C32.0897 18.9712 31.9373 18.1062 31.6334 17.2899C31.3245 16.4672 30.8575 15.7129 30.2587 15.0697C30.388 14.7453 30.4819 14.4079 30.5388 14.0633C30.5959 13.7175 30.6253 13.3682 30.6253 13.0189C30.6253 12.5693 30.5734 12.1197 30.4696 11.6822C30.3754 11.2335 30.2476 10.7925 30.0875 10.3629C30.0264 10.339 29.9612 10.3273 29.8956 10.3283H29.7054C29.3076 10.3318 28.9169 10.3975 28.5399 10.5202C28.1247 10.6415 27.7185 10.7917 27.3243 10.9698C26.9323 11.1455 26.5507 11.3436 26.1813 11.5629C25.8095 11.7825 25.481 11.9935 25.1905 12.1889C22.2816 11.3781 19.2063 11.3781 16.2974 12.1889C15.973 11.972 15.6432 11.7633 15.3083 11.5629C14.9337 11.3417 14.5456 11.1442 14.1463 10.9716C13.7532 10.7875 13.3454 10.6365 12.9272 10.5202C12.5577 10.3982 12.1717 10.3334 11.7825 10.3283H11.5923C11.5273 10.3274 11.4627 10.3391 11.4021 10.3629C11.2397 10.7931 11.1068 11.2339 11.0044 11.6822C10.911 12.1215 10.8661 12.5693 10.8644 13.0189C10.8644 13.3682 10.8937 13.7175 10.9525 14.0633C11.0096 14.4074 11.1012 14.7446 11.2292 15.0697C10.6319 15.7138 10.1667 16.4687 9.85971 17.2917C9.55413 18.1077 9.40001 18.9726 9.40494 19.8439C9.38075 21.0847 9.55112 22.3217 9.90985 23.5097C10.2228 24.4833 10.745 25.3773 11.4384 26.1312C12.156 26.8609 13.0206 27.428 13.9734 27.7981C15.1025 28.2304 16.2853 28.507 17.4888 28.6212C17.1528 28.9257 16.8862 29.299 16.7072 29.7157C16.5369 30.1279 16.4207 30.5603 16.3614 31.0022C15.7269 31.306 15.033 31.4654 14.3296 31.4691C13.6763 31.4952 13.0316 31.3136 12.488 30.9504C11.9666 30.5639 11.525 30.08 11.1877 29.5255C11.0368 29.2926 10.8679 29.0718 10.6828 28.865C10.4875 28.6475 10.2721 28.4489 10.0395 28.2719C9.81032 28.1006 9.55906 27.961 9.29254 27.8569C9.03032 27.7419 8.74714 27.6824 8.46081 27.6822C8.39165 27.684 8.32248 27.6909 8.25331 27.6995C8.15885 27.6992 8.06473 27.7108 7.97319 27.7341C7.89273 27.7552 7.81662 27.7903 7.7484 27.8379C7.71737 27.855 7.69143 27.88 7.67321 27.9103C7.65499 27.9407 7.64513 27.9754 7.64465 28.0108C7.65191 28.094 7.67735 28.1746 7.71918 28.2469C7.76101 28.3192 7.81821 28.3814 7.88673 28.4292C8.04754 28.5572 8.18069 28.6557 8.2879 28.7249L8.33977 28.7612C8.56975 28.9393 8.79108 29.1313 9.00031 29.337C9.19398 29.5065 9.36862 29.6984 9.51906 29.9077C9.67469 30.1134 9.80956 30.333 9.9185 30.5665C10.0447 30.7982 10.1779 31.0645 10.3179 31.3671C10.643 32.1867 11.2206 32.8801 11.9676 33.347C12.7509 33.7672 13.6293 33.9764 14.5198 33.9539C14.8207 33.9539 15.1233 33.9366 15.4224 33.902C15.7199 33.8536 16.0155 33.8035 16.313 33.7447V36.7586C16.3183 36.8801 16.298 37.0014 16.2533 37.1146C16.2086 37.2277 16.1406 37.3301 16.0536 37.4152C15.9666 37.5002 15.8626 37.5659 15.7485 37.608C15.6344 37.6501 15.5127 37.6677 15.3913 37.6595H15.2841C11.2518 36.3569 7.81698 33.6573 5.59829 30.0471C3.3796 26.4368 2.52279 22.153 3.18215 17.967C3.84151 13.7811 5.97371 9.96813 9.19479 7.21471C12.4159 4.46128 16.5142 2.94835 20.7517 2.94835C24.9893 2.94835 29.0876 4.46128 32.3087 7.21471C35.5297 9.96813 37.6619 13.7811 38.3213 17.967C38.9807 22.153 38.1239 26.4368 35.9052 30.0471C33.6865 33.6573 30.2517 36.3569 26.2194 37.6595V37.6682V37.6664Z" fill="#FF4D00"/>
</svg>
