<svg width="42" height="42" viewBox="0 0 42 42" fill="none" xmlns="http://www.w3.org/2000/svg">
<path fill-rule="evenodd" clip-rule="evenodd" d="M5.13203e-07 3.46714C5.13203e-07 2.5476 0.365287 1.66572 1.0155 1.01551C1.66572 0.365291 2.5476 4.62218e-06 3.46714 4.62218e-06H38.0291C38.4848 -0.000739646 38.9362 0.0884051 39.3574 0.262335C39.7786 0.436265 40.1613 0.691564 40.4837 1.01362C40.8061 1.33567 41.0618 1.71815 41.2362 2.13916C41.4106 2.56017 41.5002 3.01144 41.5 3.46714V38.0291C41.5005 38.4849 41.4111 38.9363 41.237 39.3575C41.0628 39.7787 40.8074 40.1615 40.4852 40.4838C40.163 40.8062 39.7804 41.0619 39.3592 41.2363C38.9381 41.4106 38.4868 41.5002 38.031 41.5H3.46714C3.01167 41.5 2.56066 41.4103 2.13989 41.2359C1.71911 41.0615 1.33681 40.806 1.01483 40.4838C0.692856 40.1617 0.437508 39.7792 0.263379 39.3584C0.08925 38.9375 -0.000247294 38.4864 5.13203e-07 38.031V3.46714ZM16.4265 15.8228H22.0459V18.6448C22.8571 17.0225 24.9321 15.5625 28.0502 15.5625C34.0281 15.5625 35.4448 18.7938 35.4448 24.7227V35.7051H29.3952V26.0733C29.3952 22.6967 28.5841 20.7915 26.5242 20.7915C23.6663 20.7915 22.4779 22.8458 22.4779 26.0733V35.7051H16.4265V15.8228ZM6.05146 35.4467H12.1029V15.5625H6.05146V35.4448V35.4467ZM12.9688 9.07719C12.9802 9.59532 12.888 10.1105 12.6976 10.5925C12.5072 11.0745 12.2224 11.5137 11.86 11.8842C11.4976 12.2546 11.0648 12.549 10.5871 12.7499C10.1094 12.9509 9.59638 13.0544 9.07812 13.0544C8.55987 13.0544 8.04683 12.9509 7.56912 12.7499C7.09141 12.549 6.65865 12.2546 6.29625 11.8842C5.93384 11.5137 5.64908 11.0745 5.45868 10.5925C5.26829 10.1105 5.17609 9.59532 5.1875 9.07719C5.2099 8.06016 5.62964 7.09234 6.35683 6.38098C7.08402 5.66962 8.06085 5.27129 9.07812 5.27129C10.0954 5.27129 11.0722 5.66962 11.7994 6.38098C12.5266 7.09234 12.9464 8.06016 12.9688 9.07719Z" fill="#FF4D00"/>
</svg>
