<svg width="30" height="30" viewBox="0 0 30 30" fill="none" xmlns="http://www.w3.org/2000/svg">
<g clip-path="url(#clip0_41_192)">
<path d="M15 29.945C14.5725 29.945 14.175 29.8337 13.8038 29.6412L10.0175 27.4687C9.44875 27.1662 9.73375 27.0562 9.905 27.0012C10.6725 26.7537 10.815 26.6987 11.6125 26.2575C11.6975 26.2025 11.8125 26.23 11.8975 26.285L14.8012 27.9637C14.9137 28.0187 15.0575 28.0187 15.1425 27.9637L26.5013 21.6087C26.6138 21.5537 26.6712 21.4437 26.6712 21.3062V8.6237C26.6712 8.4862 26.615 8.3762 26.5013 8.3212L15.1425 1.99495C15.0288 1.93995 14.8862 1.93995 14.8012 1.99495L3.4425 8.3212C3.32875 8.3762 3.27125 8.5137 3.27125 8.6237V21.3062C3.27125 21.4162 3.32875 21.5537 3.4425 21.6087L6.545 23.3425C8.225 24.1675 9.2775 23.205 9.2775 22.2425V9.72495C9.2775 9.55995 9.42 9.39495 9.62 9.39495H11.0713C11.2425 9.39495 11.4125 9.53245 11.4125 9.72495V22.2412C11.4125 24.415 10.1887 25.68 8.05375 25.68C7.39875 25.68 6.88625 25.68 5.435 24.9925L2.44625 23.3425C2.0861 23.1444 1.78535 22.8538 1.57506 22.5007C1.36476 22.1476 1.25255 21.7447 1.25 21.3337V8.6512C1.25 7.8262 1.705 7.0562 2.44625 6.6437L13.805 0.287453C14.1748 0.0978102 14.5844 -0.00109863 15 -0.00109863C15.4156 -0.00109863 15.8252 0.0978102 16.195 0.287453L27.555 6.64245C28.295 7.05495 28.75 7.82495 28.75 8.64995V21.3325C28.75 22.1575 28.295 22.9275 27.555 23.3412L16.195 29.695C15.8178 29.8585 15.4111 29.9427 15 29.9425V29.945ZM18.5012 21.2237C13.52 21.2237 12.495 19.0237 12.495 17.1525C12.495 16.9875 12.6375 16.8225 12.8363 16.8225H14.3162C14.4875 16.8225 14.6287 16.9325 14.6287 17.0975C14.8575 18.555 15.5125 19.27 18.53 19.27C20.9213 19.27 21.9462 18.7475 21.9462 17.51C21.9462 16.795 21.6612 16.2725 17.9325 15.915C14.8287 15.6112 12.8937 14.9525 12.8937 12.5587C12.8937 10.33 14.8288 9.0087 18.075 9.0087C21.7188 9.0087 23.5125 10.22 23.74 12.8612C23.7375 12.9506 23.7073 13.0371 23.6538 13.1087C23.5975 13.1637 23.5125 13.2187 23.4262 13.2187H21.9462C21.8744 13.217 21.805 13.1919 21.7486 13.1472C21.6922 13.1026 21.6519 13.0408 21.6337 12.9712C21.2912 11.4587 20.4088 10.9625 18.075 10.9625C15.455 10.9625 15.1425 11.8425 15.1425 12.5025C15.1425 13.3012 15.5125 13.5487 19.0425 13.9887C22.5438 14.4287 24.195 15.0612 24.195 17.4262C24.1663 19.8487 22.1175 21.2237 18.5012 21.2237Z" fill="white"/>
</g>
<defs>
<clipPath id="clip0_41_192">
<rect width="30" height="30" fill="white"/>
</clipPath>
</defs>
</svg>
