<svg width="76" height="76" viewBox="0 0 76 76" fill="none" xmlns="http://www.w3.org/2000/svg">
<g clip-path="url(#clip0_309_371)">
<path d="M38.3754 74.9646C37.3064 74.9646 36.3124 74.6864 35.3841 74.205L25.9162 68.7725C24.494 68.0161 25.2066 67.741 25.6349 67.6035C27.5541 66.9846 27.9104 66.847 29.9046 65.7436C30.1172 65.6061 30.4048 65.6749 30.6173 65.8124L37.8784 70.0103C38.1597 70.1478 38.5192 70.1478 38.7318 70.0103L67.1354 54.119C67.4167 53.9814 67.5605 53.7064 67.5605 53.3625V21.6487C67.5605 21.3049 67.4199 21.0298 67.1354 20.8923L38.7318 5.07287C38.4473 4.93533 38.091 4.93533 37.8784 5.07287L9.47475 20.8923C9.19031 21.0298 9.04652 21.3736 9.04652 21.6487V53.3625C9.04652 53.6376 9.19031 53.9814 9.47475 54.119L17.2329 58.4544C21.4339 60.5174 24.0657 58.1106 24.0657 55.7037V24.4025C24.0657 23.9899 24.4221 23.5773 24.9222 23.5773H28.5512C28.9794 23.5773 29.4045 23.9211 29.4045 24.4025V55.7006C29.4045 61.1363 26.3444 64.2995 21.0056 64.2995C19.3677 64.2995 18.0862 64.2995 14.4572 62.5804L6.98353 58.4544C6.08295 57.9592 5.33089 57.2325 4.80503 56.3495C4.27916 55.4665 3.99856 54.459 3.99219 53.4313V21.7175C3.99219 19.6545 5.12996 17.729 6.98353 16.6975L35.3872 0.803094C36.3119 0.328874 37.3362 0.081543 38.3754 0.081543C39.4146 0.081543 40.4389 0.328874 41.3636 0.803094L69.7704 16.6944C71.6209 17.7259 72.7586 19.6514 72.7586 21.7143V53.4282C72.7586 55.4912 71.6209 57.4166 69.7704 58.4513L41.3636 74.3394C40.4205 74.7483 39.4034 74.959 38.3754 74.9583V74.9646ZM47.1306 53.1562C34.6745 53.1562 32.1114 47.6549 32.1114 42.9757C32.1114 42.5631 32.4678 42.1505 32.9647 42.1505H36.6656C37.0939 42.1505 37.4471 42.4256 37.4471 42.8382C38.0191 46.4828 39.657 48.2707 47.2025 48.2707C53.1821 48.2707 55.7452 46.9641 55.7452 43.8697C55.7452 42.0817 55.0325 40.7752 45.7084 39.8812C37.9472 39.1216 33.1085 37.4744 33.1085 31.4886C33.1085 25.9154 37.9472 22.6114 46.0648 22.6114C55.1763 22.6114 59.6618 25.6403 60.2306 32.245C60.2243 32.4686 60.149 32.6848 60.015 32.8639C59.8743 33.0014 59.6618 33.139 59.4461 33.139H55.7452C55.5654 33.1346 55.3919 33.0719 55.251 32.9602C55.11 32.8486 55.0092 32.6941 54.9638 32.5201C54.1073 28.7379 51.9005 27.497 46.0648 27.497C39.5132 27.497 38.7318 29.6975 38.7318 31.3479C38.7318 33.3453 39.657 33.9642 48.4841 35.0644C57.2393 36.1647 61.3684 37.7463 61.3684 43.6602C61.2965 49.7179 56.1734 53.1562 47.1306 53.1562Z" fill="white"/>
</g>
<defs>
<clipPath id="clip0_309_371">
<rect width="75.018" height="75.018" fill="white" transform="translate(0.867188 0.0839844)"/>
</clipPath>
</defs>
</svg>
