<svg width="51" height="51" viewBox="0 0 51 51" fill="none" xmlns="http://www.w3.org/2000/svg">
<path d="M9.14934 9.34938C10.7725 10.6135 11.3793 10.5171 14.4285 10.3207L43.1546 8.66726C43.7652 8.66726 43.2589 8.08523 43.0541 7.98884L38.2812 4.67831C37.3692 3.99619 36.1518 3.21768 33.8175 3.41416L5.99964 5.36044C4.98709 5.45682 4.78226 5.94247 5.18806 6.33172L9.14934 9.34938ZM10.873 15.7703V44.7642C10.873 46.3213 11.6846 46.907 13.5126 46.8106L45.0869 45.0571C46.9111 44.9607 47.1159 43.8893 47.1159 42.6252V13.824C47.1159 12.5635 46.6096 11.8777 45.4927 11.9741L12.4961 13.824C11.2788 13.9204 10.873 14.5061 10.873 15.7703ZM42.0416 17.3273C42.2425 18.2022 42.0416 19.0771 41.1256 19.1772L39.603 19.4663V40.8717C38.2851 41.5538 37.0639 41.9468 36.0475 41.9468C34.4243 41.9468 34.0185 41.4574 32.8011 39.9968L22.8496 25.0123V39.5111L25.9993 40.1933C25.9993 40.1933 25.9993 41.9431 23.4602 41.9431L16.4574 42.3323C16.2526 41.9431 16.4574 40.9718 17.1685 40.7753L18.9927 40.2934V21.1197L16.4613 20.927C16.2565 20.0521 16.7627 18.7879 18.1849 18.6878L25.6979 18.2059L36.0552 33.3831V19.9557L33.4156 19.6628C33.2108 18.5914 34.0224 17.8129 35.0388 17.7165L42.0454 17.3273H42.0416ZM3.66537 2.73203L32.6002 0.689369C36.1518 0.392793 37.0639 0.592982 39.2976 2.15L48.5342 8.3781C50.0608 9.44577 50.567 9.73864 50.567 10.9064V45.0571C50.567 47.1999 49.7555 48.4677 46.9111 48.6568L13.3116 50.6031C11.1783 50.7032 10.1619 50.4103 9.045 49.0461L2.24317 40.5825C1.0258 39.0255 0.519531 37.8577 0.519531 36.4935V6.13524C0.519531 4.38545 1.33111 2.92481 3.66537 2.73203Z" fill="white"/>
</svg>
