<svg width="76" height="76" viewBox="0 0 76 76" fill="none" xmlns="http://www.w3.org/2000/svg">
<g clip-path="url(#clip0_309_414)">
<mask id="mask0_309_414" style="mask-type:luminance" maskUnits="userSpaceOnUse" x="0" y="0" width="76" height="76">
<path d="M0.269531 0.0839844H75.2875V75.1019H0.269531V0.0839844Z" fill="white"/>
</mask>
<g mask="url(#mask0_309_414)">
<path d="M37.5097 0.0839844C18.4614 0.0839844 19.6492 8.38597 19.6492 8.38597L19.6711 16.988H37.8442V19.5699H12.46C12.46 19.5699 0.269531 18.1789 0.269531 37.4961C0.269531 56.8132 10.9065 56.1255 10.9065 56.1255H17.2517V47.164C17.2517 47.164 16.911 36.4739 27.723 36.4739H45.746C45.746 36.4739 55.8735 36.6365 55.8735 26.6341V10.0926C55.8735 10.0926 57.4082 0.0839844 37.5066 0.0839844H37.5097ZM27.4885 5.86662C29.2952 5.86662 30.7581 7.33572 30.7581 9.15491C30.7581 10.971 29.2952 12.4401 27.4885 12.4401C25.6787 12.4401 24.219 10.971 24.219 9.15491C24.219 7.33572 25.6787 5.86662 27.4885 5.86662Z" fill="white"/>
<path d="M38.0515 75.1022C57.0935 75.1022 55.9058 66.8002 55.9058 66.8002L55.8839 58.1981H37.7108V55.6163H63.1012C63.1012 55.6163 75.2916 57.0072 75.2916 37.6901C75.2916 18.373 64.6516 19.0607 64.6516 19.0607H58.3063V28.0222C58.3063 28.0222 58.647 38.7122 47.8351 38.7122H29.8151C29.8151 38.7122 19.6877 38.5497 19.6877 48.5521V65.0935C19.6877 65.0935 18.1498 75.1022 38.0515 75.1022ZM48.0726 69.3196C46.2628 69.3196 44.8031 67.8505 44.8031 66.0313C44.8031 64.2152 46.2628 62.7461 48.0726 62.7461C49.8793 62.7461 51.3422 64.2152 51.3422 66.0313C51.3422 67.8505 49.8793 69.3196 48.0726 69.3196Z" fill="white"/>
</g>
</g>
<defs>
<clipPath id="clip0_309_414">
<rect width="75.018" height="75.018" fill="white" transform="translate(0.269531 0.0837402)"/>
</clipPath>
</defs>
</svg>
