<svg width="30" height="30" viewBox="0 0 30 30" fill="none" xmlns="http://www.w3.org/2000/svg">
<g clip-path="url(#clip0_41_178)">
<mask id="mask0_41_178" style="mask-type:alpha" maskUnits="userSpaceOnUse" x="0" y="0" width="30" height="30">
<path d="M0 0H30V30H0V0Z" fill="white"/>
</mask>
<g mask="url(#mask0_41_178)">
<path d="M30 14.6112C30 12.6237 27.5112 10.74 23.695 9.5725C24.5763 5.68375 24.185 2.58875 22.46 1.5975C22.042 1.3634 21.569 1.24557 21.09 1.25625V2.61875C21.3713 2.61875 21.5975 2.675 21.7875 2.77875C22.6187 3.25625 22.98 5.07125 22.6987 7.4075C22.6313 7.9825 22.5212 8.5875 22.3862 9.205C21.1083 8.89705 19.8113 8.67447 18.5037 8.53875C17.7248 7.46411 16.875 6.44267 15.96 5.48125C17.9537 3.62875 19.825 2.61375 21.0975 2.61375V1.25C19.415 1.25 17.2137 2.44875 14.9875 4.5275C12.7625 2.4625 10.56 1.275 8.87875 1.275V2.6375C10.145 2.6375 12.0225 3.6475 14.0163 5.4875C13.16 6.3875 12.3038 7.4075 11.49 8.53875C10.1798 8.67297 8.88044 8.89767 7.60125 9.21125C7.46606 8.62599 7.35968 8.03444 7.2825 7.43875C6.995 5.10125 7.35 3.28625 8.17625 2.80375C8.35875 2.69375 8.5975 2.64375 8.87875 2.64375V1.28125C8.36625 1.28125 7.9 1.39125 7.4975 1.6225C5.77875 2.61375 5.39375 5.70125 6.28 9.57875C2.47625 10.7537 0 12.63 0 14.6112C0 16.5988 2.48875 18.4825 6.305 19.6488C5.42375 23.5387 5.815 26.6338 7.54 27.6238C7.9375 27.8563 8.4025 27.9662 8.915 27.9662C10.5975 27.9662 12.7988 26.7675 15.025 24.6887C17.25 26.755 19.4513 27.9412 21.1337 27.9412C21.6164 27.9514 22.093 27.8332 22.515 27.5988C24.2337 26.6088 24.6187 23.5212 23.7325 19.6437C27.5238 18.4762 30 16.5925 30 14.6112ZM22.0375 10.5325C21.8 11.3498 21.5247 12.1557 21.2125 12.9475C20.7015 11.9534 20.1403 10.986 19.5312 10.0487C20.4 10.1775 21.2375 10.3362 22.0387 10.5325H22.0375ZM19.2375 17.045C18.7797 17.8443 18.288 18.6238 17.7638 19.3813C15.9291 19.543 14.0838 19.545 12.2487 19.3875C11.1962 17.884 10.2757 16.2922 9.4975 14.63C10.2745 12.9639 11.1911 11.3665 12.2375 9.855C14.0717 9.69296 15.9166 9.69045 17.7513 9.8475C18.2588 10.575 18.755 11.3525 19.2313 12.1725C19.6963 12.9725 20.1187 13.785 20.5037 14.605C20.1145 15.4349 19.6921 16.2489 19.2375 17.045ZM21.2125 16.25C21.5425 17.0688 21.825 17.8888 22.0563 18.6838C21.2563 18.88 20.4113 19.045 19.5375 19.1725C20.1441 18.2268 20.7031 17.2514 21.2125 16.25ZM15.0125 22.775C14.4438 22.1875 13.875 21.5337 13.3125 20.8175C13.8625 20.8425 14.425 20.8612 14.9937 20.8612C15.5687 20.8612 16.1375 20.8487 16.6937 20.8175C16.1437 21.5337 15.575 22.1875 15.0125 22.775ZM10.4625 19.1725C9.61968 19.0504 8.78295 18.8894 7.955 18.69C8.18125 17.9012 8.4625 17.0875 8.78 16.275C9.03125 16.7625 9.295 17.2525 9.5825 17.7425C9.87 18.2313 10.1625 18.7087 10.4625 19.1725ZM14.9812 6.4475C15.55 7.035 16.1187 7.68875 16.6812 8.405C16.1313 8.38 15.5688 8.36125 15 8.36125C14.425 8.36125 13.8563 8.37375 13.3 8.405C13.85 7.68875 14.4187 7.035 14.9812 6.4475ZM10.4562 10.05C9.84984 10.9937 9.29081 11.967 8.78125 12.9663C8.46027 12.1693 8.17868 11.3571 7.9375 10.5325C8.7375 10.3425 9.5825 10.1775 10.4562 10.05ZM4.9225 17.705C2.7575 16.7825 1.3575 15.5712 1.3575 14.6112C1.3575 13.6512 2.7575 12.4337 4.9225 11.5175C5.4475 11.2912 6.0225 11.0887 6.61625 10.9C6.965 12.0975 7.42375 13.345 7.99125 14.6238C7.45546 15.8265 7.00232 17.0644 6.635 18.3288C6.05431 18.149 5.48279 17.9408 4.9225 17.705ZM8.2125 26.4425C7.38125 25.9675 7.02 24.15 7.30125 21.815C7.36875 21.24 7.47875 20.6338 7.61375 20.0163C8.81125 20.31 10.12 20.5363 11.4962 20.6838C12.2752 21.7584 13.125 22.7798 14.04 23.7412C12.0463 25.5938 10.175 26.6088 8.9025 26.6088C8.66243 26.6114 8.42542 26.5547 8.2125 26.4438V26.4425ZM22.7175 21.7838C23.005 24.12 22.65 25.9363 21.8237 26.4188C21.6412 26.5287 21.4025 26.5775 21.1213 26.5775C19.855 26.5775 17.9775 25.5688 15.9837 23.7275C16.8949 22.7701 17.739 21.751 18.51 20.6775C19.8202 20.5433 21.1196 20.3186 22.3988 20.005C22.54 20.6225 22.6488 21.215 22.7175 21.7838ZM25.0712 17.705C24.5462 17.9312 23.9712 18.1338 23.3775 18.3225C23.0037 17.0516 22.5443 15.8076 22.0025 14.5988C22.565 13.3275 23.0163 12.0863 23.3587 10.8938C23.9413 11.0741 24.5149 11.2823 25.0775 11.5175C27.2425 12.44 28.6425 13.6512 28.6425 14.6112C28.6362 15.5712 27.2362 16.7887 25.0712 17.705Z" fill="white"/>
<path d="M14.9937 17.4063C15.735 17.4063 16.4459 17.1118 16.9701 16.5876C17.4943 16.0635 17.7887 15.3526 17.7887 14.6113C17.7887 13.87 17.4943 13.1591 16.9701 12.6349C16.4459 12.1108 15.735 11.8163 14.9937 11.8163C14.2525 11.8163 13.5415 12.1108 13.0174 12.6349C12.4932 13.1591 12.1987 13.87 12.1987 14.6113C12.1987 15.3526 12.4932 16.0635 13.0174 16.5876C13.5415 17.1118 14.2525 17.4063 14.9937 17.4063Z" fill="white"/>
</g>
</g>
<defs>
<clipPath id="clip0_41_178">
<rect width="30" height="30" fill="white"/>
</clipPath>
</defs>
</svg>
