<svg width="76" height="76" viewBox="0 0 76 76" fill="none" xmlns="http://www.w3.org/2000/svg">
<g clip-path="url(#clip0_309_435)">
<mask id="mask0_309_435" style="mask-type:luminance" maskUnits="userSpaceOnUse" x="0" y="0" width="76" height="76">
<path d="M0.0722656 0.460205H75.0902V75.4782H0.0722656V0.460205Z" fill="white"/>
</mask>
<g mask="url(#mask0_309_435)">
<path d="M75.0902 36.9971C75.0902 32.0271 68.8669 27.3166 59.324 24.3972C61.5276 14.673 60.5492 6.93361 56.2357 4.4549C55.1905 3.86951 54.0076 3.57485 52.8099 3.60157V7.00863C53.5132 7.00863 54.0789 7.14929 54.5541 7.40873C56.6327 8.60276 57.536 13.1414 56.8327 18.9834C56.6639 20.4212 56.3889 21.9341 56.0513 23.4782C52.8556 22.7081 49.6123 22.1516 46.3427 21.8122C44.3949 19.1249 42.2699 16.5707 39.9818 14.1666C44.9674 9.53424 49.6466 6.99613 52.8286 6.99613V3.58594C48.6214 3.58594 43.1169 6.58353 37.55 11.7816C31.9862 6.61791 26.4786 3.64845 22.2745 3.64845V7.05552C25.4408 7.05552 30.1357 9.58112 35.1213 14.1822C32.9801 16.4328 30.839 18.9834 28.8041 21.8122C25.5278 22.1478 22.2787 22.7097 19.0799 23.4938C18.7419 22.0303 18.4759 20.5511 18.2829 19.0615C17.564 13.2164 18.4517 8.67778 20.5178 7.47124C20.9741 7.19618 21.5712 7.07115 22.2745 7.07115V3.66408C20.9929 3.66408 19.827 3.93915 18.8205 4.51741C14.5226 6.99613 13.5599 14.7167 15.776 24.4128C6.26437 27.351 0.0722656 32.0428 0.0722656 36.9971C0.0722656 41.967 6.29563 46.6775 15.8385 49.5938C13.6349 59.3212 14.6132 67.0605 18.9268 69.5361C19.9208 70.1175 21.0835 70.3926 22.3651 70.3926C26.5724 70.3926 32.0768 67.395 37.6438 62.1968C43.2076 67.3637 48.712 70.33 52.9193 70.33C54.1261 70.3555 55.3181 70.06 56.3732 69.4736C60.6711 66.998 61.6339 59.2774 59.4177 49.5813C68.8981 46.6619 75.0902 41.9514 75.0902 36.9971ZM55.1792 26.7977C54.5853 28.8415 53.8969 30.8567 53.1162 32.8367C51.8383 30.351 50.4351 27.9316 48.9121 25.5881C51.0845 25.91 53.1787 26.307 55.1823 26.7977H55.1792ZM48.1775 43.0829C47.0327 45.0817 45.8031 47.0308 44.4923 48.9249C39.9045 49.3293 35.2902 49.3345 30.7015 48.9405C28.0694 45.1808 25.7676 41.2005 23.8217 37.0439C25.7646 32.8777 28.0567 28.8833 30.6733 25.1036C35.26 24.6984 39.8732 24.6921 44.461 25.0848C45.7301 26.904 46.971 28.8482 48.1619 30.8987C49.3247 32.8992 50.3812 34.9309 51.3439 36.9814C50.3705 39.0568 49.3142 41.0923 48.1775 43.0829ZM53.1162 41.0949C53.9414 43.1423 54.6478 45.1928 55.2261 47.1807C53.2256 47.6715 51.1126 48.0841 48.9277 48.4029C50.4445 46.038 51.8424 43.599 53.1162 41.0949ZM37.6125 57.4113C36.1903 55.9422 34.7681 54.3075 33.3615 52.5164C34.7368 52.5789 36.1434 52.6258 37.5656 52.6258C39.0035 52.6258 40.4257 52.5945 41.8166 52.5164C40.4413 54.3075 39.0191 55.9422 37.6125 57.4113ZM26.2348 48.4029C24.1272 48.0975 22.0349 47.6949 19.9645 47.1964C20.5303 45.224 21.2336 43.1892 22.0275 41.1574C22.6558 42.3765 23.3153 43.6018 24.0343 44.8271C24.7532 46.0492 25.4846 47.2433 26.2348 48.4029ZM37.5344 16.5828C38.9566 18.0519 40.3788 19.6867 41.7854 21.4777C40.41 21.4152 39.0035 21.3683 37.5812 21.3683C36.1434 21.3683 34.7212 21.3996 33.3302 21.4777C34.7056 19.6867 36.1278 18.0519 37.5344 16.5828ZM26.2192 25.5912C24.7028 27.9509 23.3049 30.3847 22.0306 32.8836C21.228 30.8908 20.5239 28.8597 19.9208 26.7977C21.9212 26.3226 24.0343 25.91 26.2192 25.5912ZM12.3815 44.7333C6.96767 42.4265 3.46683 39.3976 3.46683 36.9971C3.46683 34.5965 6.96767 31.552 12.3815 29.2608C13.6943 28.6951 15.1321 28.1887 16.6169 27.7167C17.4889 30.7112 18.6361 33.8307 20.0552 37.0283C18.7154 40.0359 17.5823 43.1313 16.6637 46.293C15.2117 45.8434 13.7825 45.3229 12.3815 44.7333ZM20.6084 66.5823C18.5298 65.3945 17.6265 60.8496 18.3298 55.0107C18.4986 53.5729 18.7736 52.0569 19.1112 50.5128C22.1057 51.2473 25.3783 51.8131 28.8198 52.1819C30.7677 54.8691 32.8927 57.4233 35.1807 59.8275C30.1951 64.4599 25.5159 66.998 22.3338 66.998C21.7335 67.0045 21.1409 66.8628 20.6084 66.5854V66.5823ZM56.8796 54.9326C57.5985 60.7746 56.7108 65.3163 54.6447 66.5229C54.1883 66.7979 53.5913 66.9198 52.888 66.9198C49.7217 66.9198 45.0268 64.3974 40.0412 59.7931C42.3197 57.399 44.4304 54.8507 46.3583 52.1663C49.6347 51.8307 52.8838 51.2688 56.0826 50.4847C56.4358 52.0288 56.7077 53.5104 56.8796 54.9326ZM62.7654 44.7333C61.4526 45.299 60.0147 45.8054 58.53 46.2774C57.5953 43.0995 56.4466 39.9885 55.0917 36.9658C56.4983 33.7869 57.6267 30.6831 58.4831 27.7011C59.9398 28.1522 61.3741 28.6727 62.781 29.2608C68.1948 31.5676 71.6957 34.5965 71.6957 36.9971C71.68 39.3976 68.1792 42.4421 62.7654 44.7333Z" fill="white"/>
<path d="M37.5653 43.9863C39.419 43.9863 41.1967 43.2499 42.5074 41.9392C43.8182 40.6285 44.5545 38.8508 44.5545 36.9971C44.5545 35.1435 43.8182 33.3657 42.5074 32.055C41.1967 30.7443 39.419 30.0079 37.5653 30.0079C35.7117 30.0079 33.934 30.7443 32.6233 32.055C31.3125 33.3657 30.5762 35.1435 30.5762 36.9971C30.5762 38.8508 31.3125 40.6285 32.6233 41.9392C33.934 43.2499 35.7117 43.9863 37.5653 43.9863Z" fill="white"/>
</g>
</g>
<defs>
<clipPath id="clip0_309_435">
<rect width="75.018" height="75.018" fill="white" transform="translate(0.0703125 0.460205)"/>
</clipPath>
</defs>
</svg>
