<svg width="76" height="76" viewBox="0 0 76 76" fill="none" xmlns="http://www.w3.org/2000/svg">
<path d="M38.1789 33.4253C27.7597 33.4253 18.9035 31.793 11.61 28.5283C4.31663 25.2636 0.669922 21.3391 0.669922 16.7546C0.669922 12.1702 4.31663 8.24566 11.61 4.98099C18.9035 1.71632 27.7597 0.0839844 38.1789 0.0839844C48.5981 0.0839844 57.4543 1.71632 64.7478 4.98099C72.0412 8.24566 75.6879 12.1702 75.6879 16.7546C75.6879 21.3391 72.0412 25.2636 64.7478 28.5283C57.4543 31.793 48.5981 33.4253 38.1789 33.4253ZM38.1789 54.2636C27.7597 54.2636 18.9035 52.6313 11.61 49.3666C4.31663 46.1019 0.669922 42.1774 0.669922 37.593V27.1738C0.669922 30.2301 2.09387 32.8182 4.94178 34.9382C7.78968 37.0553 11.1933 38.7738 15.1526 40.0936C19.1118 41.4133 23.2281 42.3677 27.5013 42.9567C31.7718 43.5486 35.331 43.8445 38.1789 43.8445C41.0268 43.8445 44.586 43.5486 48.8565 42.9567C53.1297 42.3677 57.246 41.4133 61.2052 40.0936C65.1645 38.7738 68.5681 37.0553 71.416 34.9382C74.2639 32.8182 75.6879 30.2301 75.6879 27.1738V37.593C75.6879 42.1774 72.0412 46.1019 64.7478 49.3666C57.4543 52.6313 48.5981 54.2636 38.1789 54.2636ZM38.1789 75.1019C27.7597 75.1019 18.9035 73.4696 11.61 70.2049C4.31663 66.9403 0.669922 63.0157 0.669922 58.4313V48.0121C0.669922 51.0684 2.09387 53.6565 4.94178 55.7765C7.78968 57.8937 11.1933 59.6121 15.1526 60.9319C19.1118 62.2516 23.2281 63.2074 27.5013 63.7992C31.7718 64.3883 35.331 64.6828 38.1789 64.6828C41.0268 64.6828 44.586 64.3883 48.8565 63.7992C53.1297 63.2074 57.246 62.2516 61.2052 60.9319C65.1645 59.6121 68.5681 57.8937 71.416 55.7765C74.2639 53.6565 75.6879 51.0684 75.6879 48.0121V58.4313C75.6879 63.0157 72.0412 66.9403 64.7478 70.2049C57.4543 73.4696 48.5981 75.1019 38.1789 75.1019Z" fill="white"/>
</svg>
