<svg width="51" height="51" viewBox="0 0 51 51" fill="none" xmlns="http://www.w3.org/2000/svg">
<mask id="mask0_309_462" style="mask-type:luminance" maskUnits="userSpaceOnUse" x="0" y="0" width="51" height="51">
<path d="M0.285156 0.573242H50.3327V50.6207H0.285156V0.573242Z" fill="white"/>
</mask>
<g mask="url(#mask0_309_462)">
<path d="M0.760766 18.0273C0.760766 18.0273 -0.457056 17.1368 1.00475 15.9524L4.41423 12.8703C4.41423 12.8703 5.38807 11.8339 6.4203 12.7368L37.8689 36.8055V48.3456C37.8689 48.3456 37.8543 50.1599 35.5542 49.9597L0.758681 18.0252L0.760766 18.0273Z" fill="white"/>
<path d="M8.86904 25.4655L0.761347 32.9142C0.761347 32.9142 -0.0727778 33.5398 0.761347 34.6596L4.52534 38.1213C4.52534 38.1213 5.41994 39.0909 6.73994 37.9857L15.3335 31.4003L8.86904 25.4655ZM23.0992 25.526L37.9675 14.0526L37.8695 2.57294C37.8695 2.57294 37.2335 0.0663981 35.1169 1.3718L15.3335 19.5703L23.0992 25.526Z" fill="white"/>
<path d="M35.553 49.9742C36.4163 50.8667 37.4632 50.5747 37.4632 50.5747L49.0492 44.8047C50.5318 43.7829 50.3233 42.515 50.3233 42.515V8.0552C50.3233 6.54126 48.7906 6.01785 48.7906 6.01785L38.7477 1.12362C36.554 -0.246429 35.1172 1.37177 35.1172 1.37177C35.1172 1.37177 36.9648 0.0267472 37.8698 2.57291V48.137C37.8698 48.4498 37.8031 48.7563 37.6717 49.0337C37.4069 49.5738 36.8334 50.0763 35.4571 49.8678L35.553 49.9742Z" fill="white"/>
</g>
</svg>
